<?xml version="1.0" encoding="utf-8"?>
<!-- Generator: Adobe Illustrator 25.2.1, SVG Export Plug-In . SVG Version: 6.00 Build 0)  -->
<svg version="1.1" id="Capa_1" xmlns="http://www.w3.org/2000/svg" xmlns:xlink="http://www.w3.org/1999/xlink" x="0px" y="0px"
	 viewBox="0 0 800 580" style="enable-background:new 0 0 800 580;" xml:space="preserve">
<style type="text/css">
	.st0{fill:#FFFFFF;}
</style>
<path class="st0" d="M734.92,576.45c-223.28,0-446.56,0-669.85,0C16.43,557.07,5,539.87,5,486c0-133.41-0.01-266.82,0-400.24
	C5.01,32.11,33.64,3.55,87.41,3.55c206.16-0.01,412.32,0,618.48,0c52.21,0,71.05,12.68,89.11,59.99c0,150.98,0,301.95,0,452.93
	C786.49,547.96,766.32,567.81,734.92,576.45z M64.93,40.61c3.68,4.42,5.35,6.78,7.37,8.79c100.33,99.86,200.63,199.75,301.1,299.48
	c18.32,18.18,36.25,17.18,56-2.46c98.58-98.08,197.11-196.2,295.62-294.34c2.97-2.96,5.56-6.31,10.06-11.46
	C510.88,40.61,289.5,40.61,64.93,40.61z M510.45,314.56c-20.04,20.45-39,40.37-58.59,59.65c-31.35,30.86-72.56,30.81-103.95-0.22
	c-19.55-19.32-38.33-39.42-55.63-57.29c-75.15,75.55-148.83,149.62-220.88,222.05c218.19,0,439.66,0,661.44,0
	C658.67,463.98,585.5,390.21,510.45,314.56z M42,71.5c0,146.42,0,291.32,0,437.44c73.77-74.31,146.37-147.45,216.84-218.43
	C187.4,218.36,115.12,145.36,42,71.5z M757.82,507.27c0-144.92,0-290.02,0-437.03c-74.03,74.61-146.49,147.62-216.72,218.4
	C612.62,360.79,685.2,434,757.82,507.27z"/>
</svg>
