<?xml version="1.0" encoding="utf-8"?>
<!-- Generator: Adobe Illustrator 25.2.1, SVG Export Plug-In . SVG Version: 6.00 Build 0)  -->
<svg version="1.1" id="Capa_1" xmlns="http://www.w3.org/2000/svg" xmlns:xlink="http://www.w3.org/1999/xlink" x="0px" y="0px"
	 viewBox="0 0 100 100" style="enable-background:new 0 0 100 100;" xml:space="preserve">
<style type="text/css">
	.st0{fill: white;}
</style>
<g>
	<path class="st0" d="M52.84,99.92V57.19l3-0.18c0.27-0.02,0.54-0.04,0.81-0.04l1.49,0c2.12,0,4.23-0.01,6.35,0
		c0.28-2.27,0.58-4.53,0.87-6.8l0.06-0.48H53.03l-0.2-2.98c-0.02-0.26-0.04-0.48-0.04-0.7l0-1.66c-0.01-1.95-0.01-3.91,0.01-5.86
		c0.01-0.85,0.05-1.98,0.28-3.14c0.73-3.69,3.66-6.08,7.66-6.23c1.76-0.07,3.52-0.08,5.22-0.09c0.1,0,0.2,0,0.3,0v-1.39
		c0-1.57,0-3.13,0-4.7c-0.5-0.02-1-0.05-1.49-0.08c-2.49-0.13-4.84-0.25-7.17-0.15c-5.08,0.22-8.62,2.32-10.82,6.44
		c-1.16,2.17-1.69,4.7-1.71,8.2c-0.01,1.97-0.01,3.93-0.01,5.9l0,6.42H33.73l0,1.23c0,2.02,0,4.05-0.01,6.07c1.14,0,2.27,0,3.41,0
		c1.41,0,2.82,0,4.23-0.01c0.41,0,1.69-0.01,2.7,1c0.67,0.67,1.02,1.56,1.01,2.64c-0.01,9.14-0.01,18.29-0.01,27.43l0,7.84
		c0,0.21-0.02,0.41-0.04,0.62l-0.26,3.06l-3.05-0.33C22.44,96.68,1.28,79.36,0.05,52.31c-0.62-13.72,4.22-26.73,13.63-36.65
		C23.13,5.71,35.91,0.18,49.68,0.08c13.53-0.08,26.19,5.11,35.72,14.64c9.51,9.51,14.7,22.17,14.6,35.63
		C99.8,78.51,77.5,97.51,56.05,99.6L52.84,99.92z M58.69,62.83v30.49c17.82-3.31,35.29-19.56,35.45-43.01
		c0.08-11.88-4.49-23.05-12.89-31.45C72.91,10.52,61.83,5.94,50.03,5.94c-0.1,0-0.21,0-0.31,0C37.56,6.02,26.27,10.9,17.93,19.69
		C9.63,28.44,5.35,39.93,5.9,52.04c0.98,21.55,17.16,37.04,33.31,40.79l0-4.79c0-8.4,0-16.81,0.01-25.21c-0.7,0-1.4,0-2.1,0
		c-1.82,0-3.63,0-5.44,0.02c-1.14-0.02-2.09-0.33-2.79-1.03c-0.7-0.7-1.04-1.63-1.04-2.78c0.02-2.71,0.02-5.42,0.02-8.13l0-3.35
		c0-0.24,0.02-0.47,0.04-0.74l0.19-3h11.11l0-0.56c0-1.98-0.01-3.96,0.01-5.94c0.03-4.43,0.79-7.9,2.4-10.92
		c3.17-5.94,8.61-9.23,15.74-9.54c2.61-0.11,5.21,0.03,7.73,0.16c1.19,0.06,2.39,0.13,3.58,0.16c1.73,0.05,3.47,1.23,3.47,3.74
		c-0.01,2.24-0.01,4.48-0.01,6.72l0,3.54c0,0.23-0.02,0.45-0.04,0.71l-0.21,2.97l-3.65,0c-0.74,0.01-1.48,0.01-2.22,0.02
		c-1.66,0.01-3.38,0.02-5.04,0.08c-1.85,0.07-2.04,1.04-2.14,1.51c-0.14,0.7-0.16,1.48-0.17,2.08c-0.02,1.76-0.02,3.52-0.01,5.28
		h13.2l-0.23,3.36c-0.01,0.24-0.03,0.44-0.05,0.63l-0.4,3.1c-0.37,2.86-0.75,5.72-1.09,8.58c-0.25,2.07-1.68,3.36-3.79,3.32
		C63.76,62.82,61.22,62.83,58.69,62.83z"/>
</g>
</svg>
