<?xml version="1.0" encoding="utf-8"?>
<!-- Generator: Adobe Illustrator 25.2.1, SVG Export Plug-In . SVG Version: 6.00 Build 0)  -->
<svg version="1.1" id="Capa_1" xmlns="http://www.w3.org/2000/svg" xmlns:xlink="http://www.w3.org/1999/xlink" x="0px" y="0px"
	 viewBox="0 0 320 800" style="enable-background:new 0 0 320 800;" xml:space="preserve">
<style type="text/css">
	.st0{fill:#FFFFFF;}
</style>
<path class="st0" d="M319.47,451.67c-1.43-5.15-6.76-8.17-11.91-6.75l-51.29,14.19V273.25c0-4.41-2.98-8.26-7.25-9.37
	c-4.27-1.1-8.75,0.82-10.89,4.67c-16.65,29.99-48.15,48.65-73.73,61.56c-3.03,1.53-6.12,3.05-9.22,4.55V14.68
	c0-4.91-3.68-9.05-8.56-9.61c-4.88-0.57-9.41,2.61-10.54,7.4c-11.78,50.05-36.75,96.2-72.19,133.46c-3.02,3.18-6.23,6.41-9.34,9.55
	c-15.83,15.97-32.2,32.49-39.27,55.03c-7.95,25.35-1.45,54.35,16.55,73.88c18,19.53,46.37,28.37,72.28,22.52
	c5.21-1.18,8.49-6.36,7.31-11.57c-1.18-5.21-6.36-8.48-11.57-7.31c-18.98,4.29-40.59-2.44-53.78-16.75
	c-13.19-14.31-18.14-36.4-12.32-54.97c5.66-18.05,19.69-32.2,34.54-47.19c3.17-3.2,6.45-6.51,9.61-9.83
	c24.09-25.32,43.64-54.49,57.91-86.14v270.74c-21.77,10.31-43.99,21.22-63.6,36.39c-27.49,21.26-48.51,50.65-60.76,84.97
	C-0.8,499.56-3.15,535.6,4.65,569.47c4.7,20.4,15.25,48.68,38.8,67.62c23.52,18.91,55.23,22.96,78.92,10.1
	c12.51-6.8,21.16-17.56,26.43-32.92c4.35-12.69,6.38-28.36,6.38-49.34V356.12c5.96-2.83,12.01-5.74,17.94-8.73
	c20.61-10.4,44.8-24.33,63.8-44.71v161.78l-53.56,14.81c-5.15,1.42-8.17,6.76-6.75,11.91c1.19,4.29,5.08,7.1,9.32,7.1
	c0.85,0,1.72-0.11,2.59-0.35l48.4-13.39v84.06c0,45.41-15.3,90.16-43.08,125.99c-27.85,35.93-67.35,61.68-111.22,72.52
	c-22.89,5.66-47.37,8.53-72.76,8.53c-5.35,0-9.68,4.33-9.68,9.68S4.51,795,9.86,795c26.95,0,52.99-3.06,77.41-9.09
	c48.08-11.88,91.36-40.1,121.87-79.45c30.4-39.21,47.14-88.16,47.14-137.85v-89.42l56.45-15.62
	C317.87,462.15,320.89,456.82,319.47,451.67z M135.82,564.93c0,37.1-6.78,56.61-22.69,65.24c-16.65,9.04-40.32,5.68-57.55-8.18
	c-19.23-15.46-28.05-39.46-32.07-56.88c-6.98-30.26-4.84-62.55,6.17-93.38s29.81-57.18,54.38-76.17
	c15.73-12.17,33.24-21.33,51.76-30.26V564.93z"/>
</svg>
