<?xml version="1.0" encoding="utf-8"?>
<!-- Generator: Adobe Illustrator 25.2.1, SVG Export Plug-In . SVG Version: 6.00 Build 0)  -->
<svg version="1.1" id="Capa_1" xmlns="http://www.w3.org/2000/svg" xmlns:xlink="http://www.w3.org/1999/xlink" x="0px" y="0px"
	 viewBox="0 0 161 201" style="enable-background:new 0 0 161 201;" xml:space="preserve">
<style type="text/css">
	.st0{fill:#7196B9;}
</style>
<g>
	<path class="st0" d="M69.68,118.59c0-7.59,0-14.65,0-21.7c0-28.34,0-56.68,0-85.02c0-4.74,1.99-8.32,6.33-10.29
		c4.04-1.84,7.95-1.3,11.42,1.49c2.54,2.04,3.89,4.78,3.89,8.05c0.02,29.24,0,58.48-0.01,87.73c0,6.39,0,12.77,0,19.65
		c0.93-0.61,1.58-1,2.19-1.44c12.78-9.25,25.55-18.49,38.31-27.76c5.59-4.06,11.89-3.7,15.77,0.94c4.18,5,3.25,12.07-2.2,16.03
		c-12.76,9.28-25.55,18.51-38.33,27.77c-6.45,4.67-12.88,9.37-19.34,14.04c-4.86,3.52-9.53,3.54-14.36,0.04
		c-19.23-13.92-38.46-27.85-57.67-41.79c-5.03-3.65-6.32-10.02-3.12-14.93c3.4-5.22,10.19-6.6,15.43-2.89
		c9.25,6.56,18.38,13.29,27.57,19.94C60.13,111.73,64.69,115,69.68,118.59z"/>
	<path class="st0" d="M80.51,178.85c23.22,0,46.45-0.02,69.67,0.01c5.4,0.01,9.81,3.77,10.63,8.9c0.87,5.37-2.08,10.46-7.13,12.11
		c-1.26,0.41-2.65,0.6-3.98,0.61c-46.15,0.03-92.29,0.03-138.44,0.02c-6.48,0-11.29-4.72-11.24-10.96
		c0.04-6.13,4.8-10.67,11.26-10.68C34.37,178.84,57.44,178.85,80.51,178.85z"/>
</g>
</svg>
