<?xml version="1.0" encoding="utf-8"?>
<!-- Generator: Adobe Illustrator 25.2.1, SVG Export Plug-In . SVG Version: 6.00 Build 0)  -->
<svg version="1.1" id="Capa_1" xmlns="http://www.w3.org/2000/svg" xmlns:xlink="http://www.w3.org/1999/xlink" x="0px" y="0px"
	 viewBox="0 0 100 100" style="enable-background:new 0 0 100 100;" xml:space="preserve">
<style type="text/css">
	.st0{fill: white;}
</style>
<g>
	<g>
		<path class="st0" d="M74.31,100H25.69C11.52,100,0,88.48,0,74.31V25.69C0,11.52,11.52,0,25.69,0h48.63
			C88.48,0,100,11.52,100,25.69v48.63C100,88.48,88.48,100,74.31,100z M25.69,5.88c-10.92,0-19.8,8.88-19.8,19.8v48.63
			c0,10.92,8.88,19.8,19.8,19.8h48.63c10.92,0,19.8-8.88,19.8-19.8V25.69c0-10.92-8.88-19.8-19.8-19.8H25.69z"/>
	</g>
	<g>
		<path class="st0" d="M50,70.98c-11.57,0-20.98-9.41-20.98-20.98c0-11.57,9.41-20.98,20.98-20.98S70.98,38.43,70.98,50
			C70.98,61.57,61.57,70.98,50,70.98z M50,34.9c-8.33,0-15.1,6.77-15.1,15.1c0,8.32,6.77,15.1,15.1,15.1S65.1,58.32,65.1,50
			C65.1,41.68,58.33,34.9,50,34.9z"/>
	</g>
	<g>
		<path class="st0" d="M76.52,31.91c-4.65,0-8.43-3.78-8.43-8.43s3.78-8.43,8.43-8.43c4.65,0,8.43,3.78,8.43,8.43
			S81.17,31.91,76.52,31.91z M76.52,20.93c-1.41,0-2.55,1.15-2.55,2.55c0,1.41,1.14,2.55,2.55,2.55c1.41,0,2.55-1.14,2.55-2.55
			C79.07,22.07,77.93,20.93,76.52,20.93z"/>
	</g>
</g>
</svg>
