<?xml version="1.0" encoding="utf-8"?>
<!-- Generator: Adobe Illustrator 25.2.1, SVG Export Plug-In . SVG Version: 6.00 Build 0)  -->
<svg version="1.1" id="Capa_1" xmlns="http://www.w3.org/2000/svg" xmlns:xlink="http://www.w3.org/1999/xlink" x="0px" y="0px"
	 viewBox="0 0 40 40" style="enable-background:new 0 0 40 40;" xml:space="preserve">
<style type="text/css">
	.st0{fill:black;}
</style>
<g>
	<path class="st0" d="M20.05,0.05C9.04,0.05,0.11,8.98,0.11,20c0,5.4,2.14,10.29,5.62,13.88L0.2,38.8
		c-0.42,0.42-0.12,1.14,0.48,1.14h19.38C31.07,39.95,40,31.02,40,20S31.07,0.05,20.05,0.05z M32.51,32.46
		c-3.89,3.89-12.63,1.47-19.51-5.41S3.7,11.44,7.6,7.54c3.89-3.89,12.63-1.47,19.51,5.41S36.41,28.56,32.51,32.46z"/>
	<g>
		<circle class="st0" cx="15.76" cy="15.76" r="3"/>
		<circle class="st0" cx="20" cy="20" r="3"/>
		<circle class="st0" cx="24.24" cy="24.24" r="3"/>
	</g>
</g>
</svg>
